<svg xmlns="http://www.w3.org/2000/svg" viewBox="0 0 2400 1000" width="2400" height="1000" role="img" aria-labelledby="t d"><title id="t">A distribution hub at dusk</title><desc id="d">Illustration. Inside a distribution hub at dusk, trucks wait at three open loading docks. A forklift moves a pallet across the floor while a shift lead and a planner review the loading plan on a clipboard in the foreground.</desc><defs><linearGradient id="bg" x1="0" y1="0" x2="0" y2="1"><stop offset="0" stop-color="#0E1520" stop-opacity="1"/><stop offset="1" stop-color="#17212D" stop-opacity="1"/></linearGradient><linearGradient id="floor" x1="0" y1="0" x2="0" y2="1"><stop offset="0" stop-color="#1A2430" stop-opacity="1"/><stop offset="1" stop-color="#0D131B" stop-opacity="1"/></linearGradient><linearGradient id="dock" x1="0" y1="0" x2="0" y2="1"><stop offset="0" stop-color="#F5F3ED" stop-opacity="0.95"/><stop offset="1" stop-color="#E8D9BC" stop-opacity="0.75"/></linearGradient><radialGradient id="spill" cx="0.5" cy="0" r="0.9"><stop offset="0" stop-color="#F5F3ED" stop-opacity="0.22"/><stop offset="1" stop-color="#F5F3ED" stop-opacity="0"/></radialGradient><radialGradient id="vig" cx="0.5" cy="0.5" r="0.75"><stop offset="0.55" stop-color="#0B1018" stop-opacity="0"/><stop offset="1" stop-color="#0B1018" stop-opacity="0.75"/></radialGradient><filter id="grain"><feTurbulence type="fractalNoise" baseFrequency=".9" numOctaves="2" stitchTiles="stitch"/><feColorMatrix values="0 0 0 0 1  0 0 0 0 1  0 0 0 0 1  0 0 0 .05 0"/></filter></defs><rect x="0" y="0" width="2400" height="1000" rx="0" fill="url(#bg)" opacity="1" /><rect x="0" y="120" width="2400" height="520" rx="0" fill="#141D29" opacity="1" /><path d="M0 120 L80 60 L160 120" fill="none" stroke="#1E2A38" stroke-width="6" stroke-linecap="round" stroke-linejoin="round" opacity="1"/><path d="M160 120 L240 60 L320 120" fill="none" stroke="#1E2A38" stroke-width="6" stroke-linecap="round" stroke-linejoin="round" opacity="1"/><path d="M320 120 L400 60 L480 120" fill="none" stroke="#1E2A38" stroke-width="6" stroke-linecap="round" stroke-linejoin="round" opacity="1"/><path d="M480 120 L560 60 L640 120" fill="none" stroke="#1E2A38" stroke-width="6" stroke-linecap="round" stroke-linejoin="round" opacity="1"/><path d="M640 120 L720 60 L800 120" fill="none" stroke="#1E2A38" stroke-width="6" stroke-linecap="round" stroke-linejoin="round" opacity="1"/><path d="M800 120 L880 60 L960 120" fill="none" stroke="#1E2A38" stroke-width="6" stroke-linecap="round" stroke-linejoin="round" opacity="1"/><path d="M960 120 L1040 60 L1120 120" fill="none" stroke="#1E2A38" stroke-width="6" stroke-linecap="round" stroke-linejoin="round" opacity="1"/><path d="M1120 120 L1200 60 L1280 120" fill="none" stroke="#1E2A38" stroke-width="6" stroke-linecap="round" stroke-linejoin="round" opacity="1"/><path d="M1280 120 L1360 60 L1440 120" fill="none" stroke="#1E2A38" stroke-width="6" stroke-linecap="round" stroke-linejoin="round" opacity="1"/><path d="M1440 120 L1520 60 L1600 120" fill="none" stroke="#1E2A38" stroke-width="6" stroke-linecap="round" stroke-linejoin="round" opacity="1"/><path d="M1600 120 L1680 60 L1760 120" fill="none" stroke="#1E2A38" stroke-width="6" stroke-linecap="round" stroke-linejoin="round" opacity="1"/><path d="M1760 120 L1840 60 L1920 120" fill="none" stroke="#1E2A38" stroke-width="6" stroke-linecap="round" stroke-linejoin="round" opacity="1"/><path d="M1920 120 L2000 60 L2080 120" fill="none" stroke="#1E2A38" stroke-width="6" stroke-linecap="round" stroke-linejoin="round" opacity="1"/><path d="M2080 120 L2160 60 L2240 120" fill="none" stroke="#1E2A38" stroke-width="6" stroke-linecap="round" stroke-linejoin="round" opacity="1"/><path d="M2240 120 L2320 60 L2400 120" fill="none" stroke="#1E2A38" stroke-width="6" stroke-linecap="round" stroke-linejoin="round" opacity="1"/><rect x="0" y="56" width="2400" height="10" rx="0" fill="#1E2A38" opacity="1" /><rect x="760" y="300" width="280" height="340" rx="0" fill="url(#dock)" opacity="1" /><rect x="788" y="360" width="224" height="260" rx="4" fill="#1B232E" opacity="1" /><rect x="794" y="366" width="103" height="244" rx="2" fill="#26303C" opacity="1" /><rect x="903" y="366" width="103" height="244" rx="2" fill="#26303C" opacity="1" /><rect x="788" y="612" width="224" height="8" rx="0" fill="#12171E" opacity="1" /><rect x="796" y="600" width="10" height="6" rx="0" fill="#8A4A3A" opacity="1" /><rect x="994" y="600" width="10" height="6" rx="0" fill="#8A4A3A" opacity="1" /><rect x="750" y="290" width="300" height="14" rx="0" fill="#0E141B" opacity="1" /><rect x="750" y="290" width="14" height="350" rx="0" fill="#0E141B" opacity="1" /><rect x="1036" y="290" width="14" height="350" rx="0" fill="#0E141B" opacity="1" /><rect x="870" y="250" width="60" height="28" rx="3" fill="#0E141B" opacity="1" /><rect x="878" y="258" width="44" height="12" rx="2" fill="#77A9FF" opacity="0.35" /><polygon points="760,640 1040,640 1180,1000 620,1000" fill="url(#spill)" opacity="1"/><rect x="1120" y="300" width="280" height="340" rx="0" fill="url(#dock)" opacity="1" /><rect x="1148" y="360" width="224" height="260" rx="4" fill="#1B232E" opacity="1" /><rect x="1154" y="366" width="103" height="244" rx="2" fill="#26303C" opacity="1" /><rect x="1263" y="366" width="103" height="244" rx="2" fill="#26303C" opacity="1" /><rect x="1148" y="612" width="224" height="8" rx="0" fill="#12171E" opacity="1" /><rect x="1156" y="600" width="10" height="6" rx="0" fill="#8A4A3A" opacity="1" /><rect x="1354" y="600" width="10" height="6" rx="0" fill="#8A4A3A" opacity="1" /><rect x="1110" y="290" width="300" height="14" rx="0" fill="#0E141B" opacity="1" /><rect x="1110" y="290" width="14" height="350" rx="0" fill="#0E141B" opacity="1" /><rect x="1396" y="290" width="14" height="350" rx="0" fill="#0E141B" opacity="1" /><rect x="1230" y="250" width="60" height="28" rx="3" fill="#0E141B" opacity="1" /><rect x="1238" y="258" width="44" height="12" rx="2" fill="#77A9FF" opacity="0.8" /><polygon points="1120,640 1400,640 1540,1000 980,1000" fill="url(#spill)" opacity="1"/><rect x="1480" y="300" width="280" height="340" rx="0" fill="url(#dock)" opacity="1" /><rect x="1508" y="360" width="224" height="260" rx="4" fill="#1B232E" opacity="1" /><rect x="1514" y="366" width="103" height="244" rx="2" fill="#26303C" opacity="1" /><rect x="1623" y="366" width="103" height="244" rx="2" fill="#26303C" opacity="1" /><rect x="1508" y="612" width="224" height="8" rx="0" fill="#12171E" opacity="1" /><rect x="1516" y="600" width="10" height="6" rx="0" fill="#8A4A3A" opacity="1" /><rect x="1714" y="600" width="10" height="6" rx="0" fill="#8A4A3A" opacity="1" /><rect x="1470" y="290" width="300" height="14" rx="0" fill="#0E141B" opacity="1" /><rect x="1470" y="290" width="14" height="350" rx="0" fill="#0E141B" opacity="1" /><rect x="1756" y="290" width="14" height="350" rx="0" fill="#0E141B" opacity="1" /><rect x="1590" y="250" width="60" height="28" rx="3" fill="#0E141B" opacity="1" /><rect x="1598" y="258" width="44" height="12" rx="2" fill="#77A9FF" opacity="0.35" /><polygon points="1480,640 1760,640 1900,1000 1340,1000" fill="url(#spill)" opacity="1"/><rect x="0" y="640" width="2400" height="360" rx="0" fill="url(#floor)" opacity="1" /><path d="M500 640 L-60 1000" fill="none" stroke="#C9B77A" stroke-width="5" stroke-linecap="round" stroke-linejoin="round" opacity="0.18"/><path d="M860 640 L588 1000" fill="none" stroke="#C9B77A" stroke-width="5" stroke-linecap="round" stroke-linejoin="round" opacity="0.18"/><path d="M1220 640 L1236 1000" fill="none" stroke="#C9B77A" stroke-width="5" stroke-linecap="round" stroke-linejoin="round" opacity="0.18"/><path d="M1580 640 L1884 1000" fill="none" stroke="#C9B77A" stroke-width="5" stroke-linecap="round" stroke-linejoin="round" opacity="0.18"/><path d="M1940 640 L2532 1000" fill="none" stroke="#C9B77A" stroke-width="5" stroke-linecap="round" stroke-linejoin="round" opacity="0.18"/><path d="M2300 640 L3180 1000" fill="none" stroke="#C9B77A" stroke-width="5" stroke-linecap="round" stroke-linejoin="round" opacity="0.18"/><path d="M2660 640 L3828 1000" fill="none" stroke="#C9B77A" stroke-width="5" stroke-linecap="round" stroke-linejoin="round" opacity="0.18"/><path d="M3020 640 L4476 1000" fill="none" stroke="#C9B77A" stroke-width="5" stroke-linecap="round" stroke-linejoin="round" opacity="0.18"/><path d="M3380 640 L5124 1000" fill="none" stroke="#C9B77A" stroke-width="5" stroke-linecap="round" stroke-linejoin="round" opacity="0.18"/><path d="M0 820 L2400 820" fill="none" stroke="#C9B77A" stroke-width="4" stroke-linecap="round" stroke-linejoin="round" opacity="0.15"/><rect x="37" y="200" width="6" height="460" rx="0" fill="#223042" opacity="1" /><rect x="223.667" y="200" width="6" height="460" rx="0" fill="#223042" opacity="1" /><rect x="410.333" y="200" width="6" height="460" rx="0" fill="#223042" opacity="1" /><rect x="597" y="200" width="6" height="460" rx="0" fill="#223042" opacity="1" /><rect x="40" y="568" width="560" height="5" rx="0" fill="#4E7BC4" opacity="0.55" /><rect x="50" y="517.4" width="51.5556" height="48.6" rx="2" fill="#5C5145" opacity="0.85" /><rect x="105.556" y="517.4" width="51.5556" height="48.6" rx="2" fill="#6F6152" opacity="0.85" /><rect x="161.111" y="517.4" width="51.5556" height="48.6" rx="2" fill="#5C5145" opacity="0.85" /><rect x="236.667" y="517.4" width="51.5556" height="48.6" rx="2" fill="#6F6152" opacity="0.85" /><rect x="292.222" y="517.4" width="51.5556" height="48.6" rx="2" fill="#5C5145" opacity="0.85" /><rect x="423.333" y="517.4" width="51.5556" height="48.6" rx="2" fill="#5C5145" opacity="0.85" /><rect x="534.444" y="517.4" width="51.5556" height="48.6" rx="2" fill="#5C5145" opacity="0.85" /><rect x="40" y="476" width="560" height="5" rx="0" fill="#4E7BC4" opacity="0.55" /><rect x="50" y="425.4" width="51.5556" height="48.6" rx="2" fill="#5C5145" opacity="0.85" /><rect x="105.556" y="425.4" width="51.5556" height="48.6" rx="2" fill="#6F6152" opacity="0.85" /><rect x="236.667" y="425.4" width="51.5556" height="48.6" rx="2" fill="#6F6152" opacity="0.85" /><rect x="347.778" y="425.4" width="51.5556" height="48.6" rx="2" fill="#6F6152" opacity="0.85" /><rect x="478.889" y="425.4" width="51.5556" height="48.6" rx="2" fill="#6F6152" opacity="0.85" /><rect x="534.444" y="425.4" width="51.5556" height="48.6" rx="2" fill="#5C5145" opacity="0.85" /><rect x="40" y="384" width="560" height="5" rx="0" fill="#4E7BC4" opacity="0.55" /><rect x="50" y="333.4" width="51.5556" height="48.6" rx="2" fill="#5C5145" opacity="0.85" /><rect x="161.111" y="333.4" width="51.5556" height="48.6" rx="2" fill="#5C5145" opacity="0.85" /><rect x="292.222" y="333.4" width="51.5556" height="48.6" rx="2" fill="#5C5145" opacity="0.85" /><rect x="347.778" y="333.4" width="51.5556" height="48.6" rx="2" fill="#6F6152" opacity="0.85" /><rect x="423.333" y="333.4" width="51.5556" height="48.6" rx="2" fill="#5C5145" opacity="0.85" /><rect x="478.889" y="333.4" width="51.5556" height="48.6" rx="2" fill="#6F6152" opacity="0.85" /><rect x="534.444" y="333.4" width="51.5556" height="48.6" rx="2" fill="#5C5145" opacity="0.85" /><rect x="40" y="292" width="560" height="5" rx="0" fill="#4E7BC4" opacity="0.55" /><rect x="105.556" y="241.4" width="51.5556" height="48.6" rx="2" fill="#6F6152" opacity="0.85" /><rect x="161.111" y="241.4" width="51.5556" height="48.6" rx="2" fill="#5C5145" opacity="0.85" /><rect x="236.667" y="241.4" width="51.5556" height="48.6" rx="2" fill="#6F6152" opacity="0.85" /><rect x="292.222" y="241.4" width="51.5556" height="48.6" rx="2" fill="#5C5145" opacity="0.85" /><rect x="347.778" y="241.4" width="51.5556" height="48.6" rx="2" fill="#6F6152" opacity="0.85" /><rect x="423.333" y="241.4" width="51.5556" height="48.6" rx="2" fill="#5C5145" opacity="0.85" /><rect x="478.889" y="241.4" width="51.5556" height="48.6" rx="2" fill="#6F6152" opacity="0.85" /><rect x="40" y="200" width="560" height="5" rx="0" fill="#4E7BC4" opacity="0.55" /><rect x="1877" y="200" width="6" height="460" rx="0" fill="#223042" opacity="1" /><rect x="2037" y="200" width="6" height="460" rx="0" fill="#223042" opacity="1" /><rect x="2197" y="200" width="6" height="460" rx="0" fill="#223042" opacity="1" /><rect x="2357" y="200" width="6" height="460" rx="0" fill="#223042" opacity="1" /><rect x="1880" y="568" width="480" height="5" rx="0" fill="#4E7BC4" opacity="0.55" /><rect x="1890" y="517.4" width="42.6667" height="48.6" rx="2" fill="#5C5145" opacity="0.85" /><rect x="1936.67" y="517.4" width="42.6667" height="48.6" rx="2" fill="#6F6152" opacity="0.85" /><rect x="1983.33" y="517.4" width="42.6667" height="48.6" rx="2" fill="#5C5145" opacity="0.85" /><rect x="2050" y="517.4" width="42.6667" height="48.6" rx="2" fill="#6F6152" opacity="0.85" /><rect x="2096.67" y="517.4" width="42.6667" height="48.6" rx="2" fill="#5C5145" opacity="0.85" /><rect x="2210" y="517.4" width="42.6667" height="48.6" rx="2" fill="#5C5145" opacity="0.85" /><rect x="2303.33" y="517.4" width="42.6667" height="48.6" rx="2" fill="#5C5145" opacity="0.85" /><rect x="1880" y="476" width="480" height="5" rx="0" fill="#4E7BC4" opacity="0.55" /><rect x="1890" y="425.4" width="42.6667" height="48.6" rx="2" fill="#5C5145" opacity="0.85" /><rect x="1936.67" y="425.4" width="42.6667" height="48.6" rx="2" fill="#6F6152" opacity="0.85" /><rect x="2050" y="425.4" width="42.6667" height="48.6" rx="2" fill="#6F6152" opacity="0.85" /><rect x="2143.33" y="425.4" width="42.6667" height="48.6" rx="2" fill="#6F6152" opacity="0.85" /><rect x="2256.67" y="425.4" width="42.6667" height="48.6" rx="2" fill="#6F6152" opacity="0.85" /><rect x="2303.33" y="425.4" width="42.6667" height="48.6" rx="2" fill="#5C5145" opacity="0.85" /><rect x="1880" y="384" width="480" height="5" rx="0" fill="#4E7BC4" opacity="0.55" /><rect x="1890" y="333.4" width="42.6667" height="48.6" rx="2" fill="#5C5145" opacity="0.85" /><rect x="1983.33" y="333.4" width="42.6667" height="48.6" rx="2" fill="#5C5145" opacity="0.85" /><rect x="2096.67" y="333.4" width="42.6667" height="48.6" rx="2" fill="#5C5145" opacity="0.85" /><rect x="2143.33" y="333.4" width="42.6667" height="48.6" rx="2" fill="#6F6152" opacity="0.85" /><rect x="2210" y="333.4" width="42.6667" height="48.6" rx="2" fill="#5C5145" opacity="0.85" /><rect x="2256.67" y="333.4" width="42.6667" height="48.6" rx="2" fill="#6F6152" opacity="0.85" /><rect x="2303.33" y="333.4" width="42.6667" height="48.6" rx="2" fill="#5C5145" opacity="0.85" /><rect x="1880" y="292" width="480" height="5" rx="0" fill="#4E7BC4" opacity="0.55" /><rect x="1936.67" y="241.4" width="42.6667" height="48.6" rx="2" fill="#6F6152" opacity="0.85" /><rect x="1983.33" y="241.4" width="42.6667" height="48.6" rx="2" fill="#5C5145" opacity="0.85" /><rect x="2050" y="241.4" width="42.6667" height="48.6" rx="2" fill="#6F6152" opacity="0.85" /><rect x="2096.67" y="241.4" width="42.6667" height="48.6" rx="2" fill="#5C5145" opacity="0.85" /><rect x="2143.33" y="241.4" width="42.6667" height="48.6" rx="2" fill="#6F6152" opacity="0.85" /><rect x="2210" y="241.4" width="42.6667" height="48.6" rx="2" fill="#5C5145" opacity="0.85" /><rect x="2256.67" y="241.4" width="42.6667" height="48.6" rx="2" fill="#6F6152" opacity="0.85" /><rect x="1880" y="200" width="480" height="5" rx="0" fill="#4E7BC4" opacity="0.55" /><ellipse cx="1360" cy="796" rx="130" ry="12" fill="#000" opacity="0.4"/><rect x="1300" y="700" width="140" height="70" rx="8" fill="#C7A23E" opacity="1" /><rect x="1320" y="620" width="70" height="80" rx="0" fill="none" opacity="1" stroke="#20262E" stroke-width="8"/><rect x="1412" y="730" width="30" height="40" rx="0" fill="#20262E" opacity="1" /><circle cx="1326" cy="774" r="22" fill="#12161C" opacity="1"/><circle cx="1410" cy="774" r="22" fill="#12161C" opacity="1"/><rect x="1282" y="590" width="10" height="190" rx="0" fill="#2A3038" opacity="1" /><ellipse cx="1358" cy="741.6" rx="24" ry="4.8" fill="#000" opacity="0.35"/><path d="M1362.8 708 L1329.2 708 L1329.2 740" fill="none" stroke="#2A2F38" stroke-width="8.8" stroke-linecap="round" stroke-linejoin="round" opacity="0.85"/><path d="M1332.4 738.4 L1321.2 738.4" fill="none" stroke="#111418" stroke-width="5.6" stroke-linecap="round" stroke-linejoin="round" opacity="1"/><path d="M1353.2 708 L1319.6 708 L1319.6 740" fill="none" stroke="#2A2F38" stroke-width="8.8" stroke-linecap="round" stroke-linejoin="round" opacity="1"/><path d="M1322.8 738.4 L1311.6 738.4" fill="none" stroke="#111418" stroke-width="5.6" stroke-linecap="round" stroke-linejoin="round" opacity="1"/><path d="M1367.6 661.6 L1353.2 680.8 L1335.6 685.6" fill="none" stroke="#C9D2DC" stroke-width="7.2" stroke-linecap="round" stroke-linejoin="round" opacity="0.8"/><circle cx="1335.6" cy="685.6" r="3.36" fill="#9C6644" opacity="0.9"/><path d="M1372.4 660 Q1358 653.6 1343.6 660 L1346 711.2 L1370 711.2 Z" fill="#C9D2DC" opacity="1"/><path d="M1348.4 661.6 L1340.4 680.8 L1326 684" fill="none" stroke="#C9D2DC" stroke-width="7.2" stroke-linecap="round" stroke-linejoin="round" opacity="1"/><circle cx="1326" cy="684" r="3.36" fill="#9C6644" opacity="1"/><path d="M1358 658.4 L1357.2 650.4" fill="none" stroke="#9C6644" stroke-width="6.4" stroke-linecap="round" stroke-linejoin="round" opacity="1"/><circle cx="1356.4" cy="644" r="10.4" fill="#9C6644" opacity="1"/><circle cx="1347.6" cy="644.8" r="1.92" fill="#9C6644" opacity="1"/><path d="M1345.2 642.4 A11.2 10.4 0 0 1 1367.6 642.4 Z" fill="#F5F3ED" opacity="1"/><rect x="1346" y="641.2" width="24" height="2.8" rx="1.2" fill="#F5F3ED" opacity="1" /><rect x="1210" y="760" width="80" height="8" rx="0" fill="#2A3038" opacity="1" /><rect x="1204" y="752" width="84" height="8" rx="0" fill="#3B3226" opacity="1" /><rect x="1205" y="730" width="28" height="21" rx="0" fill="#9C8466" opacity="1" /><rect x="1235" y="730" width="28" height="21" rx="0" fill="#8A7458" opacity="1" /><rect x="1205" y="708" width="28" height="21" rx="0" fill="#8A7458" opacity="1" /><rect x="1235" y="708" width="28" height="21" rx="0" fill="#9C8466" opacity="1" /><rect x="1205" y="686" width="28" height="21" rx="0" fill="#9C8466" opacity="1" /><rect x="1235" y="686" width="28" height="21" rx="0" fill="#8A7458" opacity="1" /><rect x="1204" y="686" width="84" height="66" rx="0" fill="#000" opacity="0.12" /><rect x="470" y="891.2" width="132" height="8.8" rx="0" fill="#3B3226" opacity="1" /><rect x="471.1" y="867" width="30.8" height="23.1" rx="0" fill="#9C8466" opacity="1" /><rect x="504.1" y="867" width="30.8" height="23.1" rx="0" fill="#8A7458" opacity="1" /><rect x="537.1" y="867" width="30.8" height="23.1" rx="0" fill="#9C8466" opacity="1" /><rect x="570.1" y="867" width="30.8" height="23.1" rx="0" fill="#8A7458" opacity="1" /><rect x="471.1" y="842.8" width="30.8" height="23.1" rx="0" fill="#8A7458" opacity="1" /><rect x="504.1" y="842.8" width="30.8" height="23.1" rx="0" fill="#9C8466" opacity="1" /><rect x="537.1" y="842.8" width="30.8" height="23.1" rx="0" fill="#8A7458" opacity="1" /><rect x="570.1" y="842.8" width="30.8" height="23.1" rx="0" fill="#9C8466" opacity="1" /><rect x="471.1" y="818.6" width="30.8" height="23.1" rx="0" fill="#9C8466" opacity="1" /><rect x="504.1" y="818.6" width="30.8" height="23.1" rx="0" fill="#8A7458" opacity="1" /><rect x="537.1" y="818.6" width="30.8" height="23.1" rx="0" fill="#9C8466" opacity="1" /><rect x="570.1" y="818.6" width="30.8" height="23.1" rx="0" fill="#8A7458" opacity="1" /><rect x="470" y="818.6" width="132" height="72.6" rx="0" fill="#000" opacity="0.12" /><path d="M600 900 L640 900 L700 830" fill="none" stroke="#2A3038" stroke-width="8" stroke-linecap="round" stroke-linejoin="round" opacity="1"/><ellipse cx="720" cy="907.3" rx="34.5" ry="6.9" fill="#000" opacity="0.35"/><path d="M728.05 806.1 L728.05 900.4" fill="none" stroke="#2A2F38" stroke-width="12.65" stroke-linecap="round" stroke-linejoin="round" opacity="0.85"/><path d="M730.35 902.7 L716.55 902.7" fill="none" stroke="#111418" stroke-width="8.05" stroke-linecap="round" stroke-linejoin="round" opacity="1"/><path d="M711.95 806.1 L711.95 900.4" fill="none" stroke="#2A2F38" stroke-width="12.65" stroke-linecap="round" stroke-linejoin="round" opacity="1"/><path d="M714.25 902.7 L700.45 902.7" fill="none" stroke="#111418" stroke-width="8.05" stroke-linecap="round" stroke-linejoin="round" opacity="1"/><path d="M733.8 739.4 L699.3 762.4 L669.4 771.6" fill="none" stroke="#4E7BC4" stroke-width="10.35" stroke-linecap="round" stroke-linejoin="round" opacity="0.8"/><circle cx="669.4" cy="771.6" r="4.83" fill="#C99672" opacity="0.9"/><path d="M740.7 737.1 Q720 727.9 699.3 737.1 L702.75 810.7 L737.25 810.7 Z" fill="#4E7BC4" opacity="1"/><path d="M706.2 739.4 L692.4 764.7 L664.8 769.3" fill="none" stroke="#4E7BC4" stroke-width="10.35" stroke-linecap="round" stroke-linejoin="round" opacity="1"/><circle cx="664.8" cy="769.3" r="4.83" fill="#C99672" opacity="1"/><path d="M720 734.8 L718.85 723.3" fill="none" stroke="#C99672" stroke-width="9.2" stroke-linecap="round" stroke-linejoin="round" opacity="1"/><circle cx="717.7" cy="714.1" r="14.95" fill="#C99672" opacity="1"/><circle cx="705.05" cy="715.25" r="2.76" fill="#C99672" opacity="1"/><path d="M701.6 711.8 A16.1 14.95 0 0 1 733.8 711.8 Z" fill="#F5F3ED" opacity="1"/><rect x="702.75" y="710.075" width="34.5" height="4.025" rx="1.725" fill="#F5F3ED" opacity="1" /><ellipse cx="1880" cy="983.8" rx="57" ry="11.4" fill="#000" opacity="0.35"/><path d="M1893.3 816.6 L1893.3 972.4" fill="none" stroke="#2A2F38" stroke-width="20.9" stroke-linecap="round" stroke-linejoin="round" opacity="0.85"/><path d="M1897.1 976.2 L1874.3 976.2" fill="none" stroke="#111418" stroke-width="13.3" stroke-linecap="round" stroke-linejoin="round" opacity="1"/><path d="M1866.7 816.6 L1866.7 972.4" fill="none" stroke="#2A2F38" stroke-width="20.9" stroke-linecap="round" stroke-linejoin="round" opacity="1"/><path d="M1870.5 976.2 L1847.7 976.2" fill="none" stroke="#111418" stroke-width="13.3" stroke-linecap="round" stroke-linejoin="round" opacity="1"/><path d="M1908.5 706.4 L1914.2 759.6 L1910.4 805.2" fill="none" stroke="#24344A" stroke-width="17.1" stroke-linecap="round" stroke-linejoin="round" opacity="0.8"/><circle cx="1910.4" cy="805.2" r="7.98" fill="#6E4630" opacity="0.9"/><path d="M1914.2 702.6 Q1880 687.4 1845.8 702.6 L1851.5 824.2 L1908.5 824.2 Z" fill="#24344A" opacity="1"/><path d="M1851.5 706.4 L1804 687.4 L1762.2 672.2" fill="none" stroke="#24344A" stroke-width="17.1" stroke-linecap="round" stroke-linejoin="round" opacity="1"/><circle cx="1762.2" cy="672.2" r="7.98" fill="#6E4630" opacity="1"/><path d="M1880 698.8 L1878.1 679.8" fill="none" stroke="#6E4630" stroke-width="15.2" stroke-linecap="round" stroke-linejoin="round" opacity="1"/><circle cx="1876.2" cy="664.6" r="24.7" fill="#6E4630" opacity="1"/><circle cx="1855.3" cy="666.5" r="4.56" fill="#6E4630" opacity="1"/><path d="M1851.5 664.6 A24.7 24.7 0 0 1 1900.9 664.6 Q1876.2 651.3 1851.5 664.6 Z" fill="#1A1410" opacity="1"/><ellipse cx="2070" cy="988.9" rx="58.5" ry="11.7" fill="#000" opacity="0.35"/><path d="M2083.65 817.3 L2083.65 977.2" fill="none" stroke="#2B2F36" stroke-width="21.45" stroke-linecap="round" stroke-linejoin="round" opacity="0.85"/><path d="M2087.55 981.1 L2064.15 981.1" fill="none" stroke="#111418" stroke-width="13.65" stroke-linecap="round" stroke-linejoin="round" opacity="1"/><path d="M2056.35 817.3 L2056.35 977.2" fill="none" stroke="#2B2F36" stroke-width="21.45" stroke-linecap="round" stroke-linejoin="round" opacity="1"/><path d="M2060.25 981.1 L2036.85 981.1" fill="none" stroke="#111418" stroke-width="13.65" stroke-linecap="round" stroke-linejoin="round" opacity="1"/><path d="M2097.3 704.2 L2089.5 758.8 L2042.7 770.5" fill="none" stroke="#D9D3C4" stroke-width="17.55" stroke-linecap="round" stroke-linejoin="round" opacity="0.8"/><circle cx="2042.7" cy="770.5" r="8.19" fill="#E6C3A5" opacity="0.9"/><path d="M2105.1 700.3 Q2070 684.7 2034.9 700.3 L2040.75 825.1 L2099.25 825.1 Z" fill="#D9D3C4" opacity="1"/><path d="M2042.7 704.2 L2038.8 758.8 L2023.2 762.7" fill="none" stroke="#D9D3C4" stroke-width="17.55" stroke-linecap="round" stroke-linejoin="round" opacity="1"/><circle cx="2023.2" cy="762.7" r="8.19" fill="#E6C3A5" opacity="1"/><g transform="rotate(12 2050.5 735.4)"><rect x="2025.15" y="702.25" width="50.7" height="66.3" rx="3.9" fill="#F5F3ED" opacity="1" /><rect x="2032.95" y="713.95" width="35.1" height="3.9" rx="0" fill="#BEC6D1" opacity="1" /><rect x="2032.95" y="725.65" width="27.3" height="3.9" rx="0" fill="#BEC6D1" opacity="1" /></g><path d="M2070 696.4 L2068.05 676.9" fill="none" stroke="#E6C3A5" stroke-width="15.6" stroke-linecap="round" stroke-linejoin="round" opacity="1"/><circle cx="2066.1" cy="661.3" r="25.35" fill="#E6C3A5" opacity="1"/><circle cx="2044.65" cy="663.25" r="4.68" fill="#E6C3A5" opacity="1"/><path d="M2038.8 692.5 A27.3 29.25 0 0 1 2093.4 665.2 L2050.5 653.5 Q2058.3 643.75 2038.8 692.5 Z" fill="#6B4E37" opacity="1"/><rect x="0" y="0" width="2400" height="1000" rx="0" fill="url(#vig)" opacity="1" /><rect width="2400" height="1000" filter="url(#grain)"/></svg>